<?xml version="1.0" standalone="no"?>
<!DOCTYPE svg PUBLIC "-//W3C//DTD SVG 20010904//EN"
 "http://www.w3.org/TR/2001/REC-SVG-20010904/DTD/svg10.dtd">
<svg version="1.0" xmlns="http://www.w3.org/2000/svg"
 width="808.613161pt" height="811.045001pt" viewBox="0 0 808.613161 811.045001"
 preserveAspectRatio="xMidYMid meet">
<metadata>
Created by potrace 1.12, written by Peter Selinger 2001-2015
</metadata>
<g transform="translate(-1.053899,814.379596) scale(0.100000,-0.100000)"
fill="#000000" stroke="none">
<path d="M3860 8139 c-1003 -40 -1933 -460 -2680 -1208 -440 -441 -758 -961
-958 -1567 -293 -887 -281 -1874 34 -2707 302 -798 794 -1438 1474 -1914 546
-383 1168 -618 1875 -710 200 -26 730 -26 930 0 682 89 1229 296 1790 678 864
589 1471 1521 1689 2595 107 524 110 1048 10 1574 -195 1031 -770 1916 -1639
2525 -617 432 -1412 706 -2125 731 -80 2 -165 6 -190 7 -25 2 -119 0 -210 -4z
m910 -743 c777 -108 1461 -448 2015 -1001 583 -582 928 -1308 1016 -2135 18
-173 15 -576 -5 -745 -92 -762 -421 -1433 -970 -1980 -577 -574 -1322 -932
-2146 -1031 -196 -24 -553 -24 -750 0 -552 65 -1074 258 -1540 567 -875 582
-1452 1559 -1541 2607 -15 177 -7 550 15 718 149 1138 864 2137 1904 2658 419
210 809 318 1302 360 110 9 590 -3 700 -18z"/>
<path d="M5765 6163 c-11 -3 -125 -107 -254 -232 l-234 -228 94 -53 c334 -188
559 -408 756 -738 34 -59 65 -111 67 -117 3 -5 69 55 148 135 79 80 178 177
220 215 111 103 121 159 58 322 -80 208 -297 450 -525 588 -33 20 -109 51
-170 71 -133 42 -135 42 -160 37z"/>
<path d="M3863 4278 c-1194 -1196 -1212 -1214 -1227 -1268 -21 -73 -276 -1132
-276 -1145 0 -1 12 0 28 2 39 7 1056 250 1122 269 54 15 72 32 1267 1226 666
666 1214 1220 1216 1230 6 21 -61 163 -118 253 -128 202 -293 371 -485 499
-118 79 -250 146 -287 146 -24 0 -212 -184 -1240 -1212z m1314 911 c51 -34 93
-64 93 -68 0 -3 -470 -476 -1044 -1050 l-1045 -1045 2 77 c2 93 -14 116 -87
124 -25 3 -46 11 -46 17 0 20 1994 2006 2015 2006 10 0 61 -28 112 -61z
m-2186 -2168 c20 -16 24 -28 22 -68 -1 -26 -11 -75 -22 -107 -12 -33 -21 -60
-21 -62 0 -2 28 10 63 26 210 100 377 -68 277 -279 -22 -46 -26 -62 -15 -57 9
3 47 15 85 27 59 17 75 19 105 9 43 -14 65 -53 64 -112 -1 -62 -11 -89 -39
-109 -27 -20 -569 -149 -624 -149 -28 0 -48 16 -139 109 -81 81 -107 114 -107
134 0 22 119 564 136 619 12 39 174 53 215 19z"/>
</g>
</svg>
